<?xml version="1.0" encoding="UTF-8" standalone="no"?>
<svg
   xmlns:svg="http://www.w3.org/2000/svg"
   xmlns="http://www.w3.org/2000/svg"
   xmlns:xlink="http://www.w3.org/1999/xlink"
   version="1.0"
   width="350"
   height="250">
  <defs>
    <linearGradient
       id="lG1">
      <stop
         style="stop-color:#ca0000;"
         offset="0" />
      <stop
         style="stop-color:#d91b0a;"
         offset="0.125" />
      <stop
         style="stop-color:#e9f115;"
         offset="0.25" />
      <stop
         style="stop-color:#d2d912;"
         offset="0.4" />
      <stop
         style="stop-color:#0dc110;"
         offset="0.5" />
      <stop
         style="stop-color:#0ebdb8;"
         offset="0.625" />
      <stop
         style="stop-color:#6bd5f6;"
         offset="0.75" />
      <stop
         style="stop-color:#204ea2;"
         offset="0.875" />
      <stop
         style="stop-color:#000584;"
         offset="1" />
    </linearGradient>
    <linearGradient
       x1="334.87839"
       y1="406.5253"
       x2="335.40994"
       y2="635.09308"
       id="lG2"
       xlink:href="#lG1"
       gradientUnits="userSpaceOnUse" />
    <linearGradient
       x1="334.87839"
       y1="406.5253"
       x2="335.40994"
       y2="635.09308"
       id="lG3"
       xlink:href="#lG1"
       gradientUnits="userSpaceOnUse" />
    <linearGradient
       x1="334.87839"
       y1="406.5253"
       x2="335.40994"
       y2="635.09308"
       id="lG4"
       xlink:href="#lG1"
       gradientUnits="userSpaceOnUse" />
    <linearGradient
       x1="334.87839"
       y1="406.5253"
       x2="335.40994"
       y2="635.09308"
       id="lG5"
       xlink:href="#lG1"
       gradientUnits="userSpaceOnUse" />
    <linearGradient
       x1="334.87839"
       y1="406.5253"
       x2="335.40994"
       y2="635.09308"
       id="linearGradient3498"
       xlink:href="#lG1"
       gradientUnits="userSpaceOnUse" />
  </defs>
  <rect
     width="350"
     height="250"
     style="fill:#ffffff;" />
  <path
     d="M 326.42212,219.01013 L 170.70784,209.01013 L 6.4221236,217.58156"
     style="fill:none;stroke:#000000;stroke-width:1px;" />
  <g
     transform="translate(-172.86359,-403.35205)"
     style="fill:url(#linearGradient3498);">
    <path
       d="M 345.62341,423.26007 C 346.74713,419.13077 404.15765,416.70431 433.63527,413.55273 C 436.04699,452.13405 437.96664,490.36466 446.65331,528.04956 C 456.17372,540.55642 481.66734,571.44301 499.17435,593.13974 C 487.80227,590.5013 477.12468,583.93897 465.05812,571.59264 L 345.62341,423.26007 z"
       style="fill:url(#lG3);stroke:#000000;stroke-width:1px;" />
    <path
       d="M 310.33066,568.84252 C 307.34233,568.68753 268.84127,567.13783 268.0971,520.20965 C 267.60425,489.13025 286.92,472.55371 309.18736,471.70967 C 323.1671,471.17977 330.00925,478.35092 333.42079,483.80894 C 339.88495,494.15077 340.10237,494.12104 347.31738,483.81635 C 352.27573,476.73469 359.62638,473.72154 371.83316,473.7305 C 387.63816,473.7421 411.04775,489.83954 410.90259,520.20965 C 410.69817,562.97836 376.06695,566.76931 371.15955,566.6888 C 355.70503,566.43525 349.3463,560.21068 346.90956,556.58463 C 340.33625,546.80306 339.91827,546.74505 333.10054,556.58463 C 329.58557,561.65755 323.15601,569.50771 310.33066,568.84252 z"
       style="fill:url(#lG4);stroke:#000000;stroke-width:1px;" />
    <path
       d="M 252.85714,617.36218 C 253.88312,608.64134 248.57143,544.50504 247.14286,542.36218 C 245.71429,540.21932 179.9999,447.44153 179.9999,447.44153 C 179.9999,447.44153 204.52416,456.40974 215.47631,467.6796 C 225.73882,478.2398 332.85714,626.6479 332.85714,626.6479 C 331.09688,631.22472 318.2543,631.7867 311.07644,631.66794 C 308.33667,628.02784 305.59691,623.16458 302.85714,621.6479 L 252.85714,617.36218 z"
       style="fill:url(#lG5);stroke:#000000;stroke-width:1px;" />
  </g>
  <g style="font-size:14px;fill:#000000;stroke:none;font-family:Bitstream Vera Sans">
    <text
       x="13"
       y="235">-5</text>
    <text
       x="75"
       y="240">x</text>
    <text
       x="137"
       y="246">5</text>
    <text
       x="176"
       y="246">-5</text>
    <text
       x="248"
       y="240">y</text>
    <text
       x="309"
       y="235">5</text>
    <text
       x="331"
       y="211">-5</text>
    <text
       x="333"
       y="126">z</text>
    <text
       x="334"
       y="46">5</text>
  </g>
  <path
     d="M 162.13641,231.15299 L 162.8507,2.5815592 M 131.25406,218.5257 L 74.541254,138.59491 M 144.57586,227.28003 L 17.067214,48.767919 M 151.80769,227.28003 L 26.202154,52.574149 M 156.37516,225.75754 L 36.859594,59.805979 M 6.4221236,218.29585 L 6.4221236,15.438699 L 162.8507,3.2958492 L 326.42212,14.724419 L 326.42212,219.72442 L 162.8507,231.15299 L 6.4221236,218.29585 z M 118.37215,199.79353 C 130.79254,202.73181 145.55461,209.92018 157.70142,220.03898 M 127.00135,212.2395 C 136.58105,214.22619 146.74087,219.11347 157.20358,225.5152 M 135.29867,223.52385 L 147.08086,227.50656 M 94.807774,215.22653 C 93.093144,196.08729 91.646784,176.76921 88.667764,158.4729 M 101.61157,215.89032 C 100.28188,199.76693 99.182444,184.10923 96.135354,169.25942 M 108.74726,216.72005 L 104.26671,180.7097 M 114.72133,216.886 L 111.56835,191.16432 M 121.69107,217.71573 L 119.69972,202.44867 M 127.83109,218.04762 L 127.00135,212.73734 M 129.76876,216.37778 C 136.90586,214.69531 148.2391,216.36974 150.79817,211.02484 L 150.98935,211.21601 M 170.70784,208.29585 L 171.42212,24.724419 M 6.4221236,14.724419 L 171.42212,25.438699 L 326.42212,14.724419 M 137.56335,117.19131 C 137.56335,131.72295 128.87692,143.50318 118.16167,143.50318 C 107.44642,143.50318 98.759984,131.72295 98.759984,117.19131 C 98.759984,102.65967 107.44642,90.879429 118.16167,90.879429 C 128.87692,90.879429 137.56335,102.65967 137.56335,117.19131 z M 159.33658,117.45714 C 159.34114,141.52289 145.0699,161.03533 127.46384,161.03533 C 109.85779,161.03533 95.586554,141.52289 95.591114,117.45714 C 95.586554,93.391389 109.85779,73.878949 127.46384,73.878949 C 145.0699,73.878949 159.34114,93.391389 159.33658,117.45714 z M 230.58514,90.347929 C 226.33271,87.690159 228.45893,85.563949 226.33271,87.690159 C 224.2065,89.816379 215.1701,106.29452 215.1701,116.39403 C 215.1701,126.49353 225.26961,146.69255 227.92737,146.69255 C 230.58514,146.69255 231.11669,144.56634 231.11669,144.56634 M 218.35942,77.590659 C 218.35942,77.590659 196.56575,105.23141 188.0609,105.23141 C 176.74379,105.23141 167.86188,89.284819 167.86188,89.284819 M 207.8148,71.728859 C 207.8148,71.728859 192.21952,92.437359 182.76008,92.693019 C 173.30065,92.948679 167.16479,87.835469 167.16479,87.835469 M 200.40065,70.450559 C 200.40065,70.450559 184.80536,84.767539 180.20348,86.557169 C 175.60159,88.346789 167.42045,88.346789 167.42045,88.346789 M 192.47518,71.217539 C 192.47518,71.217539 177.90253,83.744899 176.11291,84.767539 C 174.32329,85.790179 168.18744,87.579809 168.18744,87.579809 M 183.52706,73.007159 C 183.52706,73.007159 178.15819,79.909989 175.34593,82.466599 C 172.53366,85.023199 167.93178,88.091129 167.93178,88.091129 M 181.73744,159.93171 C 181.73744,159.93171 178.41385,154.56284 175.09027,151.23926 C 171.76668,147.91567 167.93178,145.87039 167.93178,145.87039 M 191.45254,162.74398 C 191.45254,162.74398 183.2714,154.30718 178.92517,151.23926 C 174.57895,148.17133 168.4431,146.12605 168.4431,146.12605 M 201.42329,163.2553 C 201.42329,163.2553 185.31669,149.19397 180.7148,147.66001 C 176.11291,146.12605 168.18744,145.61473 168.18744,145.61473 M 208.32613,161.21001 C 208.32613,161.21001 190.42989,142.03548 183.52706,141.01284 C 176.62423,139.9902 167.93178,144.59209 167.93178,144.59209 M 218.04122,157.11945 C 218.04122,157.11945 198.09971,128.9968 188.38461,128.9968 C 178.66951,128.9968 168.18744,144.33643 168.18744,144.33643 M 215.48462,159.16473 C 222.13179,151.23926 232.57688,140.37894 232.86953,116.98076 C 233.2044,90.499749 215.22896,75.819429 215.22896,75.819429 M 172.78932,152.00624 C 172.78932,152.00624 182.76008,155.84114 189.91857,155.84114 C 197.07707,155.84114 218.8082,144.84775 218.8082,118.25906 C 218.8082,91.670369 199.88933,77.864709 191.45254,77.609049 C 183.01574,77.353389 172.78932,82.210939 172.78932,82.210939 M 171.51102,148.93831 C 171.51102,148.93831 176.62423,149.70529 180.7148,149.44963 C 184.80536,149.19397 204.74688,143.31378 205.00254,117.74774 C 205.2582,92.181699 189.91857,84.767539 180.7148,84.767539 C 171.51102,84.767539 168.69876,86.812829 168.69876,86.812829 M 170.48838,146.38171 C 170.48838,146.38171 193.75348,142.29114 193.75348,117.74774 C 193.75348,93.204339 176.11291,87.579809 172.78932,87.579809 C 169.46574,87.579809 168.4431,88.602449 168.4431,88.602449 M 167.93178,145.10341 C 167.93178,145.10341 184.66559,139.28169 184.80536,117.23642 C 184.95015,94.143039 168.18744,89.113769 168.18744,89.113769 L 167.93178,89.113769 C 167.93178,89.113769 179.29967,99.744199 178.66951,116.46944 C 177.9671,134.8565 167.93178,145.10341 167.93178,145.10341 z M 152.59215,116.98076 C 152.84781,108.54397 153.69803,88.387999 163.07423,87.324149 C 168.76139,86.678869 171.51102,99.340189 173.30065,103.43075 C 175.09027,107.52132 175.85725,113.40151 175.85725,116.7251 C 175.85725,118.7863 173.78682,128.99006 173.04498,131.80906 C 171.76668,136.66661 165.86453,146.76991 164.09687,147.14869 C 156.93838,148.68265 152.16014,130.56243 152.59215,116.98076 z M 158.98366,78.376029 C 158.98366,78.376029 155.45555,75.864919 153.87045,76.330749 C 144.39675,79.114909 139.60105,104.05158 139.55347,116.98076 C 139.50661,129.71464 142.34428,150.72985 153.35913,157.11945 C 154.7774,157.94217 158.728,156.09681 158.728,156.09681 L 158.728,156.09681 M 150.03555,70.706219 C 148.50159,70.961879 127.82383,74.254409 127.53743,116.7251 C 127.29688,152.39633 145.43365,163.2553 149.26856,163.51096 M 143.13271,68.660929 C 139.2978,68.149609 117.11394,71.591969 117.56667,117.23642 C 117.95366,156.25287 136.22988,165.04492 140.83177,165.30058 M 131.88366,68.916589 C 129.0714,69.939229 109.52737,79.608909 109.6412,117.49208 C 109.74627,152.46009 126.77045,162.99964 133.16196,165.55624 M 125.7478,69.939239 C 125.7478,69.939239 103.76185,73.913029 102.73836,116.98076 C 102.08207,144.34159 116.54403,159.16473 116.54403,159.16473 M 110.15252,78.376029 C 110.15252,78.376029 99.810124,88.421739 98.136484,116.46944 C 97.270524,130.98161 105.55063,148.68265 105.55063,148.68265 M 108.2852,79.030889 L 158.47205,78.518779 M 174.34748,80.055119 L 222.74195,80.311169 M 101.11565,90.041269 L 230.42361,90.041269 M 96.762714,101.30771 L 235.80077,101.56377 M 95.482434,112.06204 L 237.59316,112.06204 M 95.482434,122.04819 L 237.84921,122.04819 M 97.530874,133.05858 L 235.80077,132.80252 M 102.65198,144.06896 L 231.70388,144.06896 M 110.84575,154.56723 L 158.47205,156.35961 M 174.09143,153.28695 L 218.64506,152.77484 L 223.76617,153.543 M 13.641604,53.716009 C 24.988584,59.507109 30.164324,57.443899 50.181394,74.269649 M 22.015304,64.754079 C 35.048204,69.052439 47.867824,76.336689 60.458214,86.830199 M 29.247144,75.030889 C 41.470864,79.152609 53.882174,85.713059 66.548174,95.584529 M 36.098354,85.307709 C 50.173104,90.935619 63.670544,98.567759 76.063754,108.14508 M 44.028214,96.077099 C 57.864324,101.68074 70.625774,108.89636 82.693694,117.15228 M 52.657424,107.69334 C 66.256544,112.63337 78.658884,119.96694 90.493174,128.43662 M 60.125004,118.14795 C 73.588394,123.95112 86.589904,130.44711 98.292654,138.89124 M 67.924484,129.4323 C 81.125274,134.82095 94.103174,141.10119 106.42401,150.00964 M 75.889904,140.21881 C 90.489894,145.92286 104.1581,153.49048 116.54674,163.61724 M 84.685054,152.83073 C 98.418124,156.11592 111.62104,164.73927 124.01432,173.90591 M 92.816424,163.78318 C 105.72942,168.28266 118.33157,175.14502 130.65217,182.70106 M 101.11373,175.73132 C 114.05754,178.57592 127.33324,186.895 139.94516,195.81082 M 109.90889,187.67945 C 124.20307,191.83783 136.43229,199.46232 148.90626,207.9249 M 75.060174,142.87395 L 78.047204,143.20584 M 75.889904,152.83073 L 84.685054,153.16262 M 77.217474,162.78751 L 92.484534,164.11508 M 77.881254,172.91023 L 99.620224,174.07185 M 78.876934,184.02863 L 107.41969,185.02431 M 79.540724,193.65352 L 115.38511,195.81082 M 80.204504,203.77624 L 122.8527,207.09517 M 87.838034,214.56275 C 86.566214,192.04008 84.772264,169.60443 80.868294,147.52045 M 9.9011236,47.186599 L 16.592294,48.142489 M 16.592294,58.083659 L 36.665824,59.039539 M 24.239354,67.833659 L 47.371704,69.363069 M 31.886414,78.921899 L 54.827594,80.260129 M 39.724654,90.201309 L 62.665824,90.010129 M 47.371704,101.09837 L 70.695234,101.09837 M 54.827594,111.4219 L 78.533474,111.99543 M 62.857004,123.46601 L 85.989354,121.36307 M 70.886414,133.98072 L 93.062884,132.26013 M 79.298174,145.06896 L 101.47465,143.53954 M 87.709944,156.9219 L 110.84229,155.58366 M 96.121704,168.20131 L 118.68053,166.28954 M 104.34229,180.24543 C 111.742,179.51092 119.39138,179.7751 126.32759,177.1866 M 112.3717,191.71601 C 119.80819,190.85432 127.56588,191.59867 134.54817,188.46601 M 120.78347,203.95131 C 128.46363,203.06412 136.49656,203.58796 143.72465,200.89249 M 179.38641,28.510129 L 261.13641,21.760129 M 187.13641,38.260129 L 261.63641,33.010129 M 195.38641,48.510129 L 262.88641,44.260129 M 203.63641,58.760129 L 263.63641,55.510129 M 212.38641,69.760129 L 264.63641,66.760129 M 222.88641,80.010129 L 265.38641,78.260129 M 231.13641,89.760129 L 266.88641,88.760129 M 238.38641,101.76013 L 268.63641,100.01013 M 246.63641,112.26013 L 270.63641,111.01013 M 255.13641,122.26013 L 273.13641,123.01013 M 275.38641,134.51013 L 263.38641,132.51013 M 279.38641,145.51013 L 271.38641,142.26013 M 280.13641,132.76013 L 275.38641,133.51013 M 288.38641,143.01013 C 285.21974,143.2407 281.55308,143.35651 279.13641,142.76013 M 273.63641,124.51013 C 275.86872,137.81367 281.98502,150.34041 287.38641,163.01013 M 297.13641,154.01013 C 292.82703,154.7247 287.84389,154.09175 282.88641,153.51013 M 306.63641,165.51013 C 300.60908,165.67546 294.51967,166.02703 289.13641,164.26013 M 314.88641,175.76013 C 310.30308,176.37429 305.71974,175.99198 301.13641,176.01013 L 301.13641,176.01013 M 251.38641,10.760129 C 256.11622,114.14296 275.4985,145.17738 278.88641,152.26013 M 243.38641,11.510129 C 251.10518,107.42563 260.40434,114.83949 269.38641,140.01013 M 235.38641,11.760129 C 240.66083,83.367549 250.56539,105.36632 260.38641,128.26013 M 227.38641,12.760129 C 235.99911,88.153249 243.91956,101.24405 251.88641,118.51013 M 219.63641,13.510129 C 224.46974,47.676799 227.07502,70.555389 243.88641,108.51013 M 212.38641,13.510129 C 216.25104,42.289629 219.14364,73.308239 235.88641,98.010129 M 205.38641,14.260129 C 207.3545,38.666749 214.61326,60.328549 223.38641,80.760129 M 198.88641,15.010129 C 201.8438,37.481629 208.01256,57.705159 217.63641,75.510129 M 192.88641,15.760129 C 195.83261,31.201289 200.15154,49.712149 209.88641,66.010129 M 186.63641,16.260129 C 189.19796,28.211839 193.07976,39.723459 197.63641,51.010129 M 181.38641,17.010129 L 188.88641,40.260129 M 176.63641,18.010129 L 182.63641,32.260129 M 241.38641,11.760129 L 262.38641,35.010129 M 192.38641,15.510129 L 270.88641,110.01013 M 176.88641,17.510129 L 311.63641,183.26013 M 276.13641,133.51013 L 318.63641,186.51013 M 283.88641,153.76013 L 304.13641,178.26013"
     style="fill:none;stroke:#000000;stroke-width:1px;" />
</svg>
