<svg width="685" height="681" xmlns="http://www.w3.org/2000/svg" xmlns:xlink="http://www.w3.org/1999/xlink" overflow="hidden"><defs><clipPath id="clip0"><path d="M252 19 937 19 937 700 252 700Z" fill-rule="evenodd" clip-rule="evenodd"/></clipPath></defs><g clip-path="url(#clip0)" transform="translate(-252 -19)"><path d="M710.5 40.5001C710.5 30.0066 744.974 21.5001 787.5 21.5001 830.026 21.5001 864.5 30.0066 864.5 40.5001 864.5 50.9935 830.026 59.5001 787.5 59.5001 744.974 59.5001 710.5 50.9935 710.5 40.5001Z" stroke="#000000" stroke-width="1.33333" stroke-miterlimit="8" fill="#FFFFFF" fill-rule="evenodd"/><text font-family="Times New Roman,Times New Roman_MSFontService,sans-serif" font-weight="400" transform="translate(772.319 45)">Mulai</text><path d="M721.5 93.0002C721.5 89.4103 724.41 86.5001 728 86.5001L845 86.5001C848.59 86.5001 851.5 89.4103 851.5 93.0002L851.5 119C851.5 122.59 848.59 125.5 845 125.5L728 125.5C724.41 125.5 721.5 122.59 721.5 119Z" stroke="#000000" stroke-width="1.33333" stroke-miterlimit="8" fill="#FFFFFF" fill-rule="evenodd"/><text font-family="Times New Roman,Times New Roman_MSFontService,sans-serif" font-weight="400" transform="translate(759.546 103)">Import and <tspan x="-13.6667" y="14">Manipulate Data</tspan></text><path d="M787.167 126.5 787.167 143.062 785.833 143.062 785.833 126.5ZM790.5 141.729 786.5 149.729 782.5 141.729Z"/><path d="M692.5 161.923C692.5 157.823 695.823 154.5 699.923 154.5L873.077 154.5C877.177 154.5 880.5 157.823 880.5 161.923L880.5 186.077C880.5 190.177 877.177 193.5 873.077 193.5L699.923 193.5C695.823 193.5 692.5 190.177 692.5 186.077Z" stroke="#000000" stroke-width="1.33333" stroke-miterlimit="8" fill="#FFFFFF" fill-rule="evenodd"/><text font-family="Times New Roman,Times New Roman_MSFontService,sans-serif" font-weight="400" transform="translate(746.879 171)">Visualisasi<tspan x="55.6666" y="0">Data </tspan><tspan x="-34.8334" y="14">( Histogram, Pie, dan Boxplot)</tspan></text><path d="M706.5 229C706.5 225.41 709.41 222.5 713 222.5L858 222.5C861.59 222.5 864.5 225.41 864.5 229L864.5 255C864.5 258.59 861.59 261.5 858 261.5L713 261.5C709.41 261.5 706.5 258.59 706.5 255Z" stroke="#000000" stroke-width="1.33333" stroke-miterlimit="8" fill="#FFFFFF" fill-rule="evenodd"/><text font-family="Times New Roman,Times New Roman_MSFontService,sans-serif" font-weight="400" transform="translate(743.624 247)">Analisis<tspan x="42.3334" y="0">Korelasi</tspan></text><path d="M787.167 261.5 787.167 278.062 785.833 278.062 785.833 261.5ZM790.5 276.728 786.5 284.728 782.5 276.728Z"/><path d="M638.5 294C638.5 289.858 641.858 286.5 646 286.5L927 286.5C931.142 286.5 934.5 289.858 934.5 294L934.5 324C934.5 328.142 931.142 331.5 927 331.5L646 331.5C641.858 331.5 638.5 328.142 638.5 324Z" stroke="#000000" stroke-width="1.33333" stroke-miterlimit="8" fill="#FFFFFF" fill-rule="evenodd"/><text font-family="Times New Roman,Times New Roman_MSFontService,sans-serif" font-weight="400" transform="translate(719.805 313)">K<tspan x="8.66669" y="0">-</tspan>Means Clustering Proses</text><path d="M788.167 331.5 788.167 348.062 786.833 348.062 786.833 331.5ZM791.5 346.728 787.5 354.728 783.5 346.728Z"/><path d="M639.5 376.5C639.5 373.739 641.739 371.5 644.5 371.5L930.5 371.5C933.261 371.5 935.5 373.739 935.5 376.5L935.5 396.5C935.5 399.261 933.261 401.5 930.5 401.5L644.5 401.5C641.739 401.5 639.5 399.261 639.5 396.5Z" stroke="#000000" stroke-width="1.33333" stroke-miterlimit="8" fill="#FFFFFF" fill-rule="evenodd"/><text font-family="Times New Roman,Times New Roman_MSFontService,sans-serif" font-weight="400" transform="translate(676.986 391)">Perbandingan<tspan x="69" y="0">Tiga</tspan><tspan x="94" y="0">Metode</tspan><tspan x="133.667" y="0">Pencarian</tspan><tspan x="184" y="0">Kluster</tspan></text><path d="M789.167 401.5 789.167 418.062 787.833 418.062 787.833 401.5ZM792.5 416.728 788.5 424.728 784.5 416.728Z"/><path d="M651.5 468.5 706.5 427.5 926.5 427.5 871.5 468.5Z" stroke="#000000" stroke-width="1.33333" stroke-miterlimit="8" fill="#FFFFFF" fill-rule="evenodd"/><text font-family="Times New Roman,Times New Roman_MSFontService,sans-serif" font-weight="400" transform="translate(749.219 452)">Hasil <tspan x="28.3334" y="0">Klastering</tspan></text><path d="M730.5 512C730.5 502.335 756.915 494.5 789.5 494.5 822.085 494.5 848.5 502.335 848.5 512 848.5 521.665 822.085 529.5 789.5 529.5 756.915 529.5 730.5 521.665 730.5 512Z" stroke="#000000" stroke-width="1.33333" stroke-miterlimit="8" fill="#FFFFFF" fill-rule="evenodd"/><text font-family="Times New Roman,Times New Roman_MSFontService,sans-serif" font-weight="400" transform="translate(772.003 516)">Selesai</text><path d="M789.167 469.5 789.167 486.062 787.833 486.062 787.833 469.5ZM792.5 484.728 788.5 492.728 784.5 484.728Z"/><text font-family="Times New Roman,Times New Roman_MSFontService,sans-serif" font-weight="400" transform="translate(523.479 684)">Gambar 1<tspan x="47.6667" y="0">. </tspan>Flowchart <tspan x="105.333" y="0">Penelitian</tspan></text><path d="M355.5 309.5C355.5 301.216 362.216 294.5 370.5 294.5L500.5 294.5C508.784 294.5 515.5 301.216 515.5 309.5L515.5 309.5C515.5 317.784 508.784 324.5 500.5 324.5L370.5 324.5C362.216 324.5 355.5 317.784 355.5 309.5Z" stroke="#000000" stroke-width="1.33333" stroke-miterlimit="8" fill="#FFFFFF" fill-rule="evenodd"/><text font-family="Times New Roman,Times New Roman_MSFontService,sans-serif" font-weight="400" transform="translate(403.441 314)">Cluster Awal</text><path d="M335.5 467.5 433.5 409.5 531.5 467.5 433.5 525.5Z" stroke="#000000" stroke-width="1.33333" stroke-miterlimit="8" fill="#FFFFFF" fill-rule="evenodd"/><text font-family="Times New Roman,Times New Roman_MSFontService,sans-serif" font-weight="400" transform="translate(414.335 457)">Apakah<tspan x="-2.33334" y="14">Centroid </tspan><tspan x="-4.33334" y="28">Berubah</tspan><tspan x="36.3333" y="28">?</tspan></text><path d="M290.5 574.333C290.5 571.664 292.664 569.5 295.333 569.5L573.667 569.5C576.336 569.5 578.5 571.664 578.5 574.333L578.5 593.667C578.5 596.336 576.336 598.5 573.667 598.5L295.333 598.5C292.664 598.5 290.5 596.336 290.5 593.667Z" stroke="#000000" stroke-width="1.33333" stroke-miterlimit="8" fill="#FFFFFF" fill-rule="evenodd"/><text font-family="Times New Roman,Times New Roman_MSFontService,sans-serif" font-weight="400" transform="translate(369.834 588)">Hitung<tspan x="36.3333" y="0">Jarak </tspan><tspan x="64.6667" y="0">dari</tspan><tspan x="86.3333" y="0">Centroid</tspan></text><path d="M291.5 631.5C291.5 628.739 293.739 626.5 296.5 626.5L570.5 626.5C573.261 626.5 575.5 628.739 575.5 631.5L575.5 651.5C575.5 654.261 573.261 656.5 570.5 656.5L296.5 656.5C293.739 656.5 291.5 654.261 291.5 651.5Z" stroke="#000000" stroke-width="1.33333" stroke-miterlimit="8" fill="#FFFFFF" fill-rule="evenodd"/><text font-family="Times New Roman,Times New Roman_MSFontService,sans-serif" font-weight="400" transform="translate(318.753 646)">Mengelompokkan<tspan x="90.3333" y="0">Data </tspan><tspan x="116" y="0">berdasarkan</tspan><tspan x="177" y="0">Kedekatan</tspan><tspan x="202.726" y="-199">Tida</tspan>k<tspan x="132.051" y="-97">Ya</tspan></text><path d="M435.167 326.5 435.167 343.41 433.833 343.41 433.833 326.5ZM438.5 342.077 434.5 350.077 430.5 342.077Z"/><path d="M435.167 383.5 435.167 400.41 433.833 400.41 433.833 383.5ZM438.5 399.077 434.5 407.077 430.5 399.077Z"/><path d="M434.167 529.5 434.167 559.692 432.833 559.692 432.833 529.5ZM437.5 558.358 433.5 566.358 429.5 558.358Z"/><path d="M344.5 357.667C344.5 354.813 346.813 352.5 349.667 352.5L531.333 352.5C534.187 352.5 536.5 354.813 536.5 357.667L536.5 378.333C536.5 381.187 534.187 383.5 531.333 383.5L349.667 383.5C346.813 383.5 344.5 381.187 344.5 378.333Z" stroke="#000000" stroke-width="1.33333" stroke-miterlimit="8" fill="#FFFFFF" fill-rule="evenodd"/><text font-family="Times New Roman,Times New Roman_MSFontService,sans-serif" font-weight="400" transform="translate(394.606 372)">Tentukan<tspan x="48.3333" y="0">Centroid</tspan></text><path d="M435.167 600.5 435.167 617.41 433.833 617.41 433.833 600.5ZM438.5 616.077 434.5 624.077 430.5 616.077Z"/><path d="M252.833 641.359 252.833 464.992 325.954 464.965 325.955 466.299 253.5 466.325 254.167 465.658 254.167 641.359ZM324.542 461.659 332.62 465.5 324.7 469.658Z"/><path d="M253.5 641.5 291.696 641.5" stroke="#000000" stroke-width="1.33333" stroke-miterlimit="8" fill="none" fill-rule="evenodd"/><path d="M5.72166e-07-0.666667 115.66-0.666567 115.66 0.666766-5.72166e-07 0.666667ZM114.327-3.9999 122.327 0.000104987 114.327 4.0001Z" transform="matrix(-1 -8.74228e-08 -8.74228e-08 1 638.827 309.5)"/><path d="M786.167 59.5 786.167 76.062 784.833 76.062 784.833 59.5001ZM789.5 74.7287 785.5 82.7287 781.5 74.7287Z"/><path d="M785.167 193.5 785.167 210.062 783.833 210.062 783.833 193.5ZM788.5 208.729 784.5 216.729 780.5 208.729Z"/><path d="M559.833 467.761 559.833 386.235 626.79 386.168 626.792 387.501 560.501 387.568 561.167 386.901 561.167 467.761ZM625.259 382.906 633.449 386.5 625.66 390.896Z"/><path d="M531.5 467.5 560.9 467.5" stroke="#000000" stroke-width="1.33333" stroke-miterlimit="8" fill="none" fill-rule="evenodd"/></g></svg>